inDegrees=yes
name=ik_lifting_orientations
DataType=double
version=3
OpenSimVersion=4.5-2024-01-10-34fd6af
endheader
time	pelvis_tilt	pelvis_list	pelvis_rotation	pelvis_tx	pelvis_ty	pelvis_tz	hip_flexion_r	hip_adduction_r	hip_rotation_r	knee_angle_r	knee_angle_r_beta	ankle_angle_r	subtalar_angle_r	mtp_angle_r	hip_flexion_l	hip_adduction_l	hip_rotation_l	knee_angle_l	knee_angle_l_beta	ankle_angle_l	subtalar_angle_l	mtp_angle_l	lumbar_extension	lumbar_bending	lumbar_rotation	arm_flex_r	arm_add_r	arm_rot_r	elbow_flex_r	pro_sup_r	wrist_flex_r	wrist_dev_r	arm_flex_l	arm_add_l	arm_rot_l	elbow_flex_l	pro_sup_l	wrist_flex_l	wrist_dev_l
0.02	-0.01552530096209061	0.002269430247219756	-90.04747749085156	0	0.9399999998679526	0	45.44494687018649	-10.95879050883598	0	59.99079873108034	1.047036958758588	-5.431254496629751	0	0	45.44494687018649	-10.95879050883598	0	59.99079873108034	1.047036958758588	-5.431254496629751	0	0	0.00599093467761531	0.01379196323007466	0.0004526821374707149	-0.4848586539208795	-0.1050321810878028	-0.001113771420097822	0.9925250273658687	1.812800068254287	0	0	0	-11.83770061240521	0	88.223076232488	1.812800068254287	0	0
0.03	-0.02762498325463319	-0.01135584098438661	-90.01482809600414	0	0.9399999998679526	0	45.44481069433385	-10.95776696795215	0	59.99080097883733	1.047036997989349	-5.430654488226187	0	0	45.44481069433385	-10.95776696795215	0	59.99080097883733	1.047036997989349	-5.430654488226187	0	0	-0.02130123024628749	0.03123407344254185	-0.09443489107932618	-0.1617958698387823	-0.03211582565398819	0.2365864669986113	0.495722737577885	1.8124136633473	0	0	0	-11.83819709639098	0	88.22345494773664	1.8124136633473	0	0
0.04	-0.02773873520696537	-0.04189111301407653	-90.05551325748461	0	0.9399999998679526	0	45.44476935898437	-10.95745932946971	0	59.99080166604406	1.047037009983369	-5.430474529203265	0	0	45.44476935898437	-10.95745932946971	0	59.99080166604406	1.047037009983369	-5.430474529203265	0	0	-0.003186732841563536	0.004892952928575103	-0.1258997775295347	-0.2263733930797802	-0.05839819085369263	0.4235733378673331	0.4961545421488094	1.812296039151913	0	0	0	-11.83834858833552	0	88.22357023117466	1.812296039151913	0	0
0.05	-0.04609114440345684	-0.04491244565556305	-90.0247647696479	0	0.9399999998679526	0	45.44470245133154	-10.95695809332344	0	59.99080277276126	1.047037029299227	-5.430180939775394	0	0	45.44470245133154	-10.95695809332344	0	59.99080277276126	1.047037029299227	-5.430180939775394	0	0	-0.03271519972317624	0.04381049718079083	-0.2033140493189741	-0.1591942931028425	-0.1011862324733434	0.5998586104434023	0.4708801770244607	1.812106018654433	0	0	0	-11.83859291924375	0	88.2237564701786	1.812106018654433	0	0
0.06	-0.05640877572203685	-0.04614094798793751	-90.0632590994405	0	0.9399999998679526	0	45.44458055436151	-10.95605099782942	0	59.99080479886823	1.047037064661465	-5.429650390067531	0	0	45.44458055436151	-10.95605099782942	0	59.99080479886823	1.047037064661465	-5.429650390067531	0	0	-0.1052497918565318	0.1116318525204723	-0.3608753214932523	-0.08233725349070263	-0.2046015480723382	0.9397690639871018	0.4629810262391899	1.811759157870948	0	0	0	-11.83903963816562	0	88.22409642832704	1.811759157870948	0	0
0.07000000000000001	-0.0890390180382023	-0.08065275874750849	-90.09462829623291	0	0.9399999998679526	0	45.44447067211352	-10.95522924314047	0	59.99080661731268	1.047037096399308	-5.429169361710358	0	0	45.44447067211352	-10.95522924314047	0	59.99080661731268	1.047037096399308	-5.429169361710358	0	0	-0.1628634142336808	0.1757739383842286	-0.4199055704448071	0.03315725350023963	-0.2752646004429373	1.16993108728497	0.3942913583675936	1.811446995238433	0	0	0	-11.83944110642104	0	88.22440237879042	1.811446995238433	0	0
0.08	-0.1668920882180026	-0.1642156857288347	-90.2022961590005	0	0.9399999998679526	0	45.44430775476032	-10.95401160188486	0	59.99080931320412	1.04703714345149	-5.428456808210503	0	0	45.44430775476032	-10.95401160188486	0	59.99080931320412	1.04703714345149	-5.428456808210503	0	0	-0.3418511347057091	0.3488227350185204	-0.4679442246840941	0.2144771341257151	-0.4685064249079238	1.47000059944043	0.3335573262659952	1.810984148883026	0	0	0	-11.8400363714357	0	88.22485601430868	1.810984148883026	0	0
0.09	-0.2019630188607856	-0.1860407128172653	-90.35756948344762	0	0.9399999998679526	0	45.44421677773101	-10.95332917254259	0	59.99081081355408	1.047037169637537	-5.428057241566909	0	0	45.44421677773101	-10.95332917254259	0	59.99081081355408	1.047037169637537	-5.428057241566909	0	0	-0.3612933134536562	0.3745297955390231	-0.3748869443838129	0.3067221008619766	-0.6035093351169349	1.716388280527622	0.265418996430661	1.810726006576252	0	0	0	-11.84036800802485	0	88.22510901945107	1.810726006576252	0	0
0.1	-0.2478334277479789	-0.2326735223895948	-90.48478063151168	0	0.9399999998679526	0	45.44412865034516	-10.9526679142709	0	59.99081226596816	1.047037194986945	-5.427670097374696	0	0	45.44412865034516	-10.9526679142709	0	59.99081226596816	1.047037194986945	-5.427670097374696	0	0	-0.4044015112608849	0.4173132209554636	-0.3070180631508663	0.3581630460936322	-0.7174544108039357	1.863411817611748	0.2343548141919091	1.810476000559639	0	0	0	-11.84068913082803	0	88.22535405021618	1.810476000559639	0	0
0.11	-0.2892934762157015	-0.2795576987771869	-90.62797032489655	0	0.9399999998679526	0	45.44401896304556	-10.95184393694896	0	59.99081407154083	1.047037226500132	-5.427187625218838	0	0	45.44401896304556	-10.95184393694896	0	59.99081407154083	1.047037226500132	-5.427187625218838	0	0	-0.4577083949030923	0.4614218009569446	-0.1647176188395591	0.4139539276440951	-0.9656986013615502	1.915727884261007	0.2016660856526877	1.810164962723011	0	0	0	-11.84108850024368	0	88.22565889822663	1.810164962723011	0	0
0.12	-0.2776780412349045	-0.2796444638914425	-90.73241022791198	0	0.9399999998679526	0	45.44393960726068	-10.9512489014193	0	59.99081537928356	1.047037249324549	-5.42683937017239	0	0	45.44393960726068	-10.9512489014193	0	59.99081537928356	1.047037249324549	-5.42683937017239	0	0	-0.4920497031852272	0.4782787881297753	-0.09371130375584116	0.4904498310441523	-1.465315368412268	1.895022666902963	0.1554619112716966	1.809939828497574	0	0	0	-11.84137768301727	0	88.22587955216399	1.809939828497574	0	0
0.13	-0.3074522150816441	-0.2988785665747924	-90.83573490708071	0	0.9399999998679526	0	45.44383104413518	-10.95043383595889	0	59.99081716575469	1.047037280504352	-5.426362291213051	0	0	45.44383104413518	-10.95043383595889	0	59.99081716575469	1.047037280504352	-5.426362291213051	0	0	-0.5145691490334834	0.512502509189493	0.009623152110967242	0.5262022957554664	-1.712788661330692	1.850114485827618	0.1325483123144928	1.809631988323775	0	0	0	-11.84177292246297	0	88.22618126614698	1.809631988323775	0	0
0.14	-0.3155989940686776	-0.2968971394158941	-91.00173958312216	0	0.9399999998679526	0	45.44374034075556	-10.94975406872159	0	59.99081865987722	1.04703730658171	-5.425964592933473	0	0	45.44374034075556	-10.94975406872159	0	59.99081865987722	1.04703730658171	-5.425964592933473	0	0	-0.5474698666050888	0.5482502048666568	0.1959954426001812	0.5953963366902835	-1.98646696136954	1.793658081202178	0.1158927818943936	1.809374676268157	0	0	0	-11.84210340821899	0	88.2264334575585	1.809374676268157	0	0
